{
	"patcher" : 	{
		"fileversion" : 1,
		"appversion" : 		{
			"major" : 8,
			"minor" : 5,
			"revision" : 3,
			"architecture" : "x64",
			"modernui" : 1
		}
,
		"classnamespace" : "box",
		"rect" : [ 361.0, 159.0, 1102.0, 770.0 ],
		"bglocked" : 0,
		"openinpresentation" : 0,
		"default_fontsize" : 12.0,
		"default_fontface" : 0,
		"default_fontname" : "Arial",
		"gridonopen" : 1,
		"gridsize" : [ 15.0, 15.0 ],
		"gridsnaponopen" : 1,
		"objectsnaponopen" : 1,
		"statusbarvisible" : 2,
		"toolbarvisible" : 1,
		"lefttoolbarpinned" : 0,
		"toptoolbarpinned" : 0,
		"righttoolbarpinned" : 0,
		"bottomtoolbarpinned" : 0,
		"toolbars_unpinned_last_save" : 0,
		"tallnewobj" : 0,
		"boxanimatetime" : 200,
		"enablehscroll" : 1,
		"enablevscroll" : 1,
		"devicewidth" : 0.0,
		"description" : "",
		"digest" : "",
		"tags" : "",
		"style" : "",
		"subpatcher_template" : "",
		"assistshowspatchername" : 0,
		"boxes" : [ 			{
				"box" : 				{
					"comment" : "",
					"id" : "obj-48",
					"index" : 3,
					"maxclass" : "outlet",
					"numinlets" : 1,
					"numoutlets" : 0,
					"patching_rect" : [ 233.0, 138.0, 30.0, 30.0 ]
				}

			}
, 			{
				"box" : 				{
					"id" : "obj-70",
					"maxclass" : "newobj",
					"numinlets" : 1,
					"numoutlets" : 2,
					"outlettype" : [ "int", "bang" ],
					"patching_rect" : [ 537.499999999999773, 415.897058367729187, 29.5, 22.0 ],
					"text" : "t i b"
				}

			}
, 			{
				"box" : 				{
					"format" : 6,
					"id" : "obj-69",
					"maxclass" : "flonum",
					"numinlets" : 1,
					"numoutlets" : 2,
					"outlettype" : [ "", "bang" ],
					"parameter_enable" : 0,
					"patching_rect" : [ 537.499999999999773, 308.698529183864537, 50.0, 22.0 ]
				}

			}
, 			{
				"box" : 				{
					"id" : "obj-68",
					"maxclass" : "newobj",
					"numinlets" : 6,
					"numoutlets" : 1,
					"outlettype" : [ "" ],
					"patching_rect" : [ 537.499999999999773, 272.965686122576358, 90.0, 22.0 ],
					"text" : "scale 0. 1. 0 30"
				}

			}
, 			{
				"box" : 				{
					"id" : "obj-67",
					"maxclass" : "newobj",
					"numinlets" : 1,
					"numoutlets" : 1,
					"outlettype" : [ "" ],
					"patching_rect" : [ 662.231481481480841, 583.602941632270813, 29.0, 22.0 ],
					"text" : "thru"
				}

			}
, 			{
				"box" : 				{
					"fontface" : 1,
					"id" : "obj-66",
					"maxclass" : "comment",
					"numinlets" : 1,
					"numoutlets" : 0,
					"patching_rect" : [ 833.999999999999545, 380.164215306440894, 191.0, 20.0 ],
					"text" : "rescale to add minimum chance"
				}

			}
, 			{
				"box" : 				{
					"fontface" : 1,
					"id" : "obj-65",
					"maxclass" : "comment",
					"numinlets" : 1,
					"numoutlets" : 0,
					"patching_rect" : [ 833.999999999999545, 308.698529183864537, 108.0, 20.0 ],
					"text" : "square root scale"
				}

			}
, 			{
				"box" : 				{
					"format" : 6,
					"id" : "obj-64",
					"maxclass" : "flonum",
					"numinlets" : 1,
					"numoutlets" : 2,
					"outlettype" : [ "", "bang" ],
					"parameter_enable" : 0,
					"patching_rect" : [ 767.999999999999545, 380.164215306440894, 50.0, 22.0 ]
				}

			}
, 			{
				"box" : 				{
					"id" : "obj-63",
					"maxclass" : "newobj",
					"numinlets" : 6,
					"numoutlets" : 1,
					"outlettype" : [ "" ],
					"patching_rect" : [ 767.999999999999545, 344.431372245152716, 103.0, 22.0 ],
					"text" : "scale 0. 1. 0.15 1."
				}

			}
, 			{
				"box" : 				{
					"id" : "obj-59",
					"maxclass" : "newobj",
					"numinlets" : 1,
					"numoutlets" : 2,
					"outlettype" : [ "float", "bang" ],
					"patching_rect" : [ 767.999999999999545, 415.897058367729073, 29.5, 22.0 ],
					"text" : "t f b"
				}

			}
, 			{
				"box" : 				{
					"id" : "obj-62",
					"maxclass" : "newobj",
					"numinlets" : 3,
					"numoutlets" : 1,
					"outlettype" : [ "" ],
					"patching_rect" : [ 767.999999999999545, 237.232843061288179, 53.0, 22.0 ],
					"text" : "clip 0. 1."
				}

			}
, 			{
				"box" : 				{
					"format" : 6,
					"id" : "obj-61",
					"maxclass" : "flonum",
					"numinlets" : 1,
					"numoutlets" : 2,
					"outlettype" : [ "", "bang" ],
					"parameter_enable" : 0,
					"patching_rect" : [ 767.999999999999545, 308.698529183864537, 50.0, 22.0 ]
				}

			}
, 			{
				"box" : 				{
					"id" : "obj-55",
					"maxclass" : "newobj",
					"numinlets" : 6,
					"numoutlets" : 1,
					"outlettype" : [ "" ],
					"patching_rect" : [ 767.999999999999545, 201.5, 103.0, 22.0 ],
					"text" : "scale 0. 1. 1.25 0."
				}

			}
, 			{
				"box" : 				{
					"id" : "obj-49",
					"maxclass" : "newobj",
					"numinlets" : 1,
					"numoutlets" : 1,
					"outlettype" : [ "float" ],
					"patching_rect" : [ 767.999999999999545, 272.965686122576358, 29.0, 22.0 ],
					"text" : "sqrt"
				}

			}
, 			{
				"box" : 				{
					"fontface" : 1,
					"id" : "obj-26",
					"maxclass" : "comment",
					"numinlets" : 1,
					"numoutlets" : 0,
					"patching_rect" : [ 767.999999999999545, 109.0, 92.0, 20.0 ],
					"text" : "chance to play"
				}

			}
, 			{
				"box" : 				{
					"format" : 6,
					"id" : "obj-43",
					"maxclass" : "flonum",
					"numinlets" : 1,
					"numoutlets" : 2,
					"outlettype" : [ "", "bang" ],
					"parameter_enable" : 0,
					"patching_rect" : [ 191.75, 108.0, 50.0, 22.0 ]
				}

			}
, 			{
				"box" : 				{
					"fontface" : 1,
					"id" : "obj-3",
					"maxclass" : "comment",
					"numinlets" : 1,
					"numoutlets" : 0,
					"patching_rect" : [ 531.349999999999682, 109.0, 99.0, 20.0 ],
					"text" : "duration spread"
				}

			}
, 			{
				"box" : 				{
					"fontface" : 1,
					"id" : "obj-42",
					"maxclass" : "comment",
					"numinlets" : 1,
					"numoutlets" : 0,
					"patching_rect" : [ 137.5, 33.5, 107.0, 20.0 ],
					"text" : "stretch amount"
				}

			}
, 			{
				"box" : 				{
					"comment" : "",
					"id" : "obj-41",
					"index" : 1,
					"maxclass" : "inlet",
					"numinlets" : 0,
					"numoutlets" : 1,
					"outlettype" : [ "" ],
					"patching_rect" : [ 76.5, 17.0, 30.0, 30.0 ]
				}

			}
, 			{
				"box" : 				{
					"id" : "obj-7",
					"maxclass" : "newobj",
					"numinlets" : 2,
					"numoutlets" : 1,
					"outlettype" : [ "float" ],
					"patching_rect" : [ 652.75, 237.232843061288179, 41.0, 22.0 ],
					"text" : "pow 3"
				}

			}
, 			{
				"box" : 				{
					"id" : "obj-37",
					"maxclass" : "newobj",
					"numinlets" : 2,
					"numoutlets" : 1,
					"outlettype" : [ "float" ],
					"patching_rect" : [ 76.5, 101.0, 29.5, 22.0 ],
					"text" : "* 1."
				}

			}
, 			{
				"box" : 				{
					"id" : "obj-8",
					"maxclass" : "newobj",
					"numinlets" : 0,
					"numoutlets" : 1,
					"outlettype" : [ "" ],
					"patching_rect" : [ 137.5, 65.0, 72.0, 22.0 ],
					"text" : "r stretch-len"
				}

			}
, 			{
				"box" : 				{
					"id" : "obj-36",
					"maxclass" : "newobj",
					"numinlets" : 1,
					"numoutlets" : 1,
					"outlettype" : [ "" ],
					"patching_rect" : [ 191.75, 138.0, 29.0, 22.0 ],
					"text" : "thru"
				}

			}
, 			{
				"box" : 				{
					"format" : 6,
					"id" : "obj-35",
					"maxclass" : "flonum",
					"numinlets" : 1,
					"numoutlets" : 2,
					"outlettype" : [ "", "bang" ],
					"parameter_enable" : 0,
					"patching_rect" : [ 191.75, 308.698529183864537, 50.0, 22.0 ]
				}

			}
, 			{
				"box" : 				{
					"id" : "obj-33",
					"maxclass" : "number",
					"numinlets" : 1,
					"numoutlets" : 2,
					"outlettype" : [ "", "bang" ],
					"parameter_enable" : 0,
					"patching_rect" : [ 76.5, 308.698529183864537, 50.0, 22.0 ]
				}

			}
, 			{
				"box" : 				{
					"id" : "obj-9",
					"maxclass" : "newobj",
					"numinlets" : 2,
					"numoutlets" : 1,
					"outlettype" : [ "int" ],
					"patching_rect" : [ 135.5, 221.0, 29.5, 22.0 ],
					"text" : "i 0"
				}

			}
, 			{
				"box" : 				{
					"id" : "obj-11",
					"maxclass" : "newobj",
					"numinlets" : 2,
					"numoutlets" : 1,
					"outlettype" : [ "int" ],
					"patching_rect" : [ 76.5, 221.0, 29.5, 22.0 ],
					"text" : "i 1"
				}

			}
, 			{
				"box" : 				{
					"id" : "obj-28",
					"maxclass" : "button",
					"numinlets" : 1,
					"numoutlets" : 1,
					"outlettype" : [ "bang" ],
					"parameter_enable" : 0,
					"patching_rect" : [ 76.5, 183.0, 24.0, 24.0 ]
				}

			}
, 			{
				"box" : 				{
					"format" : 6,
					"id" : "obj-12",
					"maxclass" : "flonum",
					"numinlets" : 1,
					"numoutlets" : 2,
					"outlettype" : [ "", "bang" ],
					"parameter_enable" : 0,
					"patching_rect" : [ 76.5, 65.0, 50.0, 22.0 ]
				}

			}
, 			{
				"box" : 				{
					"id" : "obj-13",
					"maxclass" : "message",
					"numinlets" : 2,
					"numoutlets" : 1,
					"outlettype" : [ "" ],
					"patching_rect" : [ 76.5, 138.0, 55.0, 22.0 ],
					"text" : "0 0 1. $1"
				}

			}
, 			{
				"box" : 				{
					"format" : 6,
					"id" : "obj-22",
					"maxclass" : "flonum",
					"numinlets" : 1,
					"numoutlets" : 2,
					"outlettype" : [ "", "bang" ],
					"parameter_enable" : 0,
					"patching_rect" : [ 652.75, 308.698529183864537, 50.0, 22.0 ]
				}

			}
, 			{
				"box" : 				{
					"format" : 6,
					"id" : "obj-21",
					"maxclass" : "flonum",
					"numinlets" : 1,
					"numoutlets" : 2,
					"outlettype" : [ "", "bang" ],
					"parameter_enable" : 0,
					"patching_rect" : [ 422.249999999999773, 308.698529183864537, 50.0, 22.0 ]
				}

			}
, 			{
				"box" : 				{
					"format" : 6,
					"id" : "obj-14",
					"maxclass" : "flonum",
					"numinlets" : 1,
					"numoutlets" : 2,
					"outlettype" : [ "", "bang" ],
					"parameter_enable" : 0,
					"patching_rect" : [ 307.100000000000023, 308.698529183864537, 50.0, 22.0 ]
				}

			}
, 			{
				"box" : 				{
					"fontface" : 1,
					"id" : "obj-20",
					"maxclass" : "comment",
					"numinlets" : 1,
					"numoutlets" : 0,
					"patching_rect" : [ 652.75, 109.0, 37.0, 20.0 ],
					"text" : "pitch"
				}

			}
, 			{
				"box" : 				{
					"id" : "obj-23",
					"maxclass" : "newobj",
					"numinlets" : 6,
					"numoutlets" : 1,
					"outlettype" : [ "" ],
					"patching_rect" : [ 652.75, 272.965686122576358, 97.0, 22.0 ],
					"text" : "scale 0. 1. 1. 1.2"
				}

			}
, 			{
				"box" : 				{
					"id" : "obj-25",
					"maxclass" : "newobj",
					"numinlets" : 3,
					"numoutlets" : 2,
					"outlettype" : [ "", "bang" ],
					"patching_rect" : [ 113.5, 183.0, 41.0, 22.0 ],
					"text" : "line 0."
				}

			}
, 			{
				"box" : 				{
					"fontface" : 1,
					"id" : "obj-30",
					"maxclass" : "comment",
					"numinlets" : 1,
					"numoutlets" : 0,
					"patching_rect" : [ 422.249999999999773, 109.0, 56.0, 20.0 ],
					"text" : "duration"
				}

			}
, 			{
				"box" : 				{
					"id" : "obj-32",
					"maxclass" : "newobj",
					"numinlets" : 6,
					"numoutlets" : 1,
					"outlettype" : [ "" ],
					"patching_rect" : [ 422.249999999999773, 272.965686122576358, 103.0, 22.0 ],
					"text" : "scale 0. 1. 100 30"
				}

			}
, 			{
				"box" : 				{
					"fontface" : 1,
					"id" : "obj-39",
					"maxclass" : "comment",
					"numinlets" : 1,
					"numoutlets" : 0,
					"patching_rect" : [ 307.100000000000023, 109.0, 107.0, 20.0 ],
					"text" : "position variance"
				}

			}
, 			{
				"box" : 				{
					"id" : "obj-40",
					"maxclass" : "newobj",
					"numinlets" : 6,
					"numoutlets" : 1,
					"outlettype" : [ "" ],
					"patching_rect" : [ 307.100000000000023, 272.965686122576358, 97.0, 22.0 ],
					"text" : "scale 0. 1. 0 200"
				}

			}
, 			{
				"box" : 				{
					"id" : "obj-27",
					"maxclass" : "newobj",
					"numinlets" : 1,
					"numoutlets" : 2,
					"outlettype" : [ "float", "bang" ],
					"patching_rect" : [ 652.75, 415.897058367729187, 29.5, 22.0 ],
					"text" : "t f b"
				}

			}
, 			{
				"box" : 				{
					"id" : "obj-10",
					"maxclass" : "newobj",
					"numinlets" : 2,
					"numoutlets" : 1,
					"outlettype" : [ "float" ],
					"patching_rect" : [ 191.75, 344.431372245152716, 29.5, 22.0 ],
					"text" : "* 0."
				}

			}
, 			{
				"box" : 				{
					"id" : "obj-4",
					"maxclass" : "newobj",
					"numinlets" : 1,
					"numoutlets" : 2,
					"outlettype" : [ "int", "bang" ],
					"patching_rect" : [ 307.100000000000023, 415.897058367729187, 29.5, 22.0 ],
					"text" : "t i b"
				}

			}
, 			{
				"box" : 				{
					"id" : "obj-96",
					"maxclass" : "message",
					"numinlets" : 2,
					"numoutlets" : 1,
					"outlettype" : [ "" ],
					"patching_rect" : [ 202.25, 481.080063992076475, 49.0, 22.0 ],
					"text" : "target 0"
				}

			}
, 			{
				"box" : 				{
					"id" : "obj-97",
					"maxclass" : "newobj",
					"numinlets" : 1,
					"numoutlets" : 2,
					"outlettype" : [ "float", "bang" ],
					"patching_rect" : [ 191.75, 382.247540891170445, 29.5, 22.0 ],
					"text" : "t f b"
				}

			}
, 			{
				"box" : 				{
					"id" : "obj-95",
					"maxclass" : "newobj",
					"numinlets" : 1,
					"numoutlets" : 2,
					"outlettype" : [ "int", "bang" ],
					"patching_rect" : [ 422.249999999999773, 415.897058367729187, 29.5, 22.0 ],
					"text" : "t i b"
				}

			}
, 			{
				"box" : 				{
					"comment" : "",
					"id" : "obj-94",
					"index" : 1,
					"maxclass" : "outlet",
					"numinlets" : 1,
					"numoutlets" : 0,
					"patching_rect" : [ 76.5, 697.602941632270813, 30.0, 30.0 ]
				}

			}
, 			{
				"box" : 				{
					"id" : "obj-92",
					"maxclass" : "newobj",
					"numinlets" : 2,
					"numoutlets" : 1,
					"outlettype" : [ "bang" ],
					"patching_rect" : [ 76.5, 344.431372245152716, 56.0, 22.0 ],
					"text" : "metro 20"
				}

			}
, 			{
				"box" : 				{
					"comment" : "",
					"id" : "obj-89",
					"index" : 2,
					"maxclass" : "outlet",
					"numinlets" : 1,
					"numoutlets" : 0,
					"patching_rect" : [ 108.5, 457.080063992076475, 30.0, 30.0 ]
				}

			}
, 			{
				"box" : 				{
					"id" : "obj-90",
					"maxclass" : "newobj",
					"numinlets" : 5,
					"numoutlets" : 4,
					"outlettype" : [ "int", "", "", "int" ],
					"patching_rect" : [ 145.0625, 415.897058367729187, 75.0, 22.0 ],
					"text" : "counter 1 64"
				}

			}
, 			{
				"box" : 				{
					"id" : "obj-91",
					"maxclass" : "message",
					"numinlets" : 2,
					"numoutlets" : 1,
					"outlettype" : [ "" ],
					"patching_rect" : [ 145.0625, 481.080063992076475, 56.0, 22.0 ],
					"text" : "target $1"
				}

			}
, 			{
				"box" : 				{
					"id" : "obj-24",
					"maxclass" : "newobj",
					"numinlets" : 1,
					"numoutlets" : 2,
					"outlettype" : [ "bang", "bang" ],
					"patching_rect" : [ 76.5, 380.164215306440894, 32.0, 22.0 ],
					"text" : "t b b"
				}

			}
, 			{
				"box" : 				{
					"id" : "obj-19",
					"maxclass" : "message",
					"numinlets" : 2,
					"numoutlets" : 1,
					"outlettype" : [ "" ],
					"patching_rect" : [ 76.5, 415.897058367729187, 62.0, 22.0 ],
					"text" : "note bang"
				}

			}
, 			{
				"box" : 				{
					"id" : "obj-87",
					"lastchannelcount" : 64,
					"maxclass" : "mc.live.gain~",
					"numinlets" : 1,
					"numoutlets" : 4,
					"outlettype" : [ "multichannelsignal", "", "float", "list" ],
					"parameter_enable" : 1,
					"patching_rect" : [ 76.5, 608.573525309562683, 406.0, 71.0 ],
					"saved_attribute_attributes" : 					{
						"valueof" : 						{
							"parameter_longname" : "mc.live.gain~[1]",
							"parameter_mmax" : 6.0,
							"parameter_mmin" : -70.0,
							"parameter_shortname" : "waves",
							"parameter_type" : 0,
							"parameter_unitstyle" : 4
						}

					}
,
					"varname" : "mc.live.gain~[1]"
				}

			}
, 			{
				"box" : 				{
					"id" : "obj-58",
					"maxclass" : "newobj",
					"numinlets" : 0,
					"numoutlets" : 1,
					"outlettype" : [ "" ],
					"patching_rect" : [ 229.0, 344.431372245152716, 72.0, 22.0 ],
					"text" : "r stretch-len"
				}

			}
, 			{
				"box" : 				{
					"id" : "obj-54",
					"maxclass" : "newobj",
					"numinlets" : 2,
					"numoutlets" : 1,
					"outlettype" : [ "float" ],
					"patching_rect" : [ 742.893518518517794, 583.602941632270813, 29.5, 22.0 ],
					"text" : "+ 0."
				}

			}
, 			{
				"box" : 				{
					"id" : "obj-53",
					"maxclass" : "newobj",
					"numinlets" : 1,
					"numoutlets" : 1,
					"outlettype" : [ "" ],
					"patching_rect" : [ 500.907407407406481, 583.602941632270813, 96.0, 22.0 ],
					"text" : "loadmess set #1"
				}

			}
, 			{
				"box" : 				{
					"buffername" : "stretch",
					"id" : "obj-52",
					"maxclass" : "waveform~",
					"numinlets" : 5,
					"numoutlets" : 6,
					"outlettype" : [ "float", "float", "float", "float", "list", "" ],
					"patching_rect" : [ 500.907407407406936, 620.602941632270813, 341.648148148147811, 58.97058367729187 ]
				}

			}
, 			{
				"box" : 				{
					"id" : "obj-1",
					"maxclass" : "newobj",
					"numinlets" : 7,
					"numoutlets" : 4,
					"outlettype" : [ "multichannelsignal", "", "", "" ],
					"patching_rect" : [ 76.5, 530.0, 710.799999999999955, 22.0 ],
					"text" : "mc.poly~ ata.polyFreeze 64 @args #1"
				}

			}
 ],
		"lines" : [ 			{
				"patchline" : 				{
					"destination" : [ "obj-54", 1 ],
					"midpoints" : [ 547.200000000000045, 560.0, 762.893518518517794, 560.0 ],
					"source" : [ "obj-1", 2 ]
				}

			}
, 			{
				"patchline" : 				{
					"destination" : [ "obj-67", 0 ],
					"midpoints" : [ 316.600000000000023, 569.0, 671.731481481480841, 569.0 ],
					"source" : [ "obj-1", 1 ]
				}

			}
, 			{
				"patchline" : 				{
					"destination" : [ "obj-87", 0 ],
					"source" : [ "obj-1", 0 ]
				}

			}
, 			{
				"patchline" : 				{
					"destination" : [ "obj-97", 0 ],
					"source" : [ "obj-10", 0 ]
				}

			}
, 			{
				"patchline" : 				{
					"destination" : [ "obj-33", 0 ],
					"source" : [ "obj-11", 0 ]
				}

			}
, 			{
				"patchline" : 				{
					"destination" : [ "obj-37", 0 ],
					"source" : [ "obj-12", 0 ]
				}

			}
, 			{
				"patchline" : 				{
					"destination" : [ "obj-25", 0 ],
					"order" : 0,
					"source" : [ "obj-13", 0 ]
				}

			}
, 			{
				"patchline" : 				{
					"destination" : [ "obj-28", 0 ],
					"order" : 1,
					"source" : [ "obj-13", 0 ]
				}

			}
, 			{
				"patchline" : 				{
					"destination" : [ "obj-4", 0 ],
					"source" : [ "obj-14", 0 ]
				}

			}
, 			{
				"patchline" : 				{
					"destination" : [ "obj-1", 0 ],
					"source" : [ "obj-19", 0 ]
				}

			}
, 			{
				"patchline" : 				{
					"destination" : [ "obj-95", 0 ],
					"source" : [ "obj-21", 0 ]
				}

			}
, 			{
				"patchline" : 				{
					"destination" : [ "obj-27", 0 ],
					"source" : [ "obj-22", 0 ]
				}

			}
, 			{
				"patchline" : 				{
					"destination" : [ "obj-22", 0 ],
					"source" : [ "obj-23", 0 ]
				}

			}
, 			{
				"patchline" : 				{
					"destination" : [ "obj-19", 0 ],
					"source" : [ "obj-24", 0 ]
				}

			}
, 			{
				"patchline" : 				{
					"destination" : [ "obj-90", 0 ],
					"source" : [ "obj-24", 1 ]
				}

			}
, 			{
				"patchline" : 				{
					"destination" : [ "obj-43", 0 ],
					"source" : [ "obj-25", 0 ]
				}

			}
, 			{
				"patchline" : 				{
					"destination" : [ "obj-9", 0 ],
					"source" : [ "obj-25", 1 ]
				}

			}
, 			{
				"patchline" : 				{
					"destination" : [ "obj-1", 5 ],
					"source" : [ "obj-27", 0 ]
				}

			}
, 			{
				"patchline" : 				{
					"color" : [ 0.986047506332397, 0.008333429694176, 0.501923501491547, 1.0 ],
					"destination" : [ "obj-96", 0 ],
					"source" : [ "obj-27", 1 ]
				}

			}
, 			{
				"patchline" : 				{
					"destination" : [ "obj-11", 0 ],
					"source" : [ "obj-28", 0 ]
				}

			}
, 			{
				"patchline" : 				{
					"destination" : [ "obj-21", 0 ],
					"source" : [ "obj-32", 0 ]
				}

			}
, 			{
				"patchline" : 				{
					"destination" : [ "obj-92", 0 ],
					"source" : [ "obj-33", 0 ]
				}

			}
, 			{
				"patchline" : 				{
					"destination" : [ "obj-10", 0 ],
					"source" : [ "obj-35", 0 ]
				}

			}
, 			{
				"patchline" : 				{
					"destination" : [ "obj-32", 0 ],
					"midpoints" : [ 201.25, 258.0, 431.749999999999773, 258.0 ],
					"order" : 3,
					"source" : [ "obj-36", 0 ]
				}

			}
, 			{
				"patchline" : 				{
					"destination" : [ "obj-35", 0 ],
					"order" : 5,
					"source" : [ "obj-36", 0 ]
				}

			}
, 			{
				"patchline" : 				{
					"destination" : [ "obj-40", 0 ],
					"midpoints" : [ 201.25, 258.0, 316.600000000000023, 258.0 ],
					"order" : 4,
					"source" : [ "obj-36", 0 ]
				}

			}
, 			{
				"patchline" : 				{
					"destination" : [ "obj-55", 0 ],
					"midpoints" : [ 201.25, 193.0, 777.499999999999545, 193.0 ],
					"order" : 0,
					"source" : [ "obj-36", 0 ]
				}

			}
, 			{
				"patchline" : 				{
					"destination" : [ "obj-68", 0 ],
					"midpoints" : [ 201.25, 258.0, 546.999999999999773, 258.0 ],
					"order" : 2,
					"source" : [ "obj-36", 0 ]
				}

			}
, 			{
				"patchline" : 				{
					"destination" : [ "obj-7", 0 ],
					"midpoints" : [ 201.25, 219.0, 662.25, 219.0 ],
					"order" : 1,
					"source" : [ "obj-36", 0 ]
				}

			}
, 			{
				"patchline" : 				{
					"destination" : [ "obj-13", 0 ],
					"source" : [ "obj-37", 0 ]
				}

			}
, 			{
				"patchline" : 				{
					"destination" : [ "obj-1", 2 ],
					"source" : [ "obj-4", 0 ]
				}

			}
, 			{
				"patchline" : 				{
					"color" : [ 0.986047506332397, 0.008333429694176, 0.501923501491547, 1.0 ],
					"destination" : [ "obj-96", 0 ],
					"source" : [ "obj-4", 1 ]
				}

			}
, 			{
				"patchline" : 				{
					"destination" : [ "obj-14", 0 ],
					"source" : [ "obj-40", 0 ]
				}

			}
, 			{
				"patchline" : 				{
					"destination" : [ "obj-12", 0 ],
					"source" : [ "obj-41", 0 ]
				}

			}
, 			{
				"patchline" : 				{
					"destination" : [ "obj-36", 0 ],
					"order" : 1,
					"source" : [ "obj-43", 0 ]
				}

			}
, 			{
				"patchline" : 				{
					"destination" : [ "obj-48", 0 ],
					"order" : 0,
					"source" : [ "obj-43", 0 ]
				}

			}
, 			{
				"patchline" : 				{
					"destination" : [ "obj-61", 0 ],
					"source" : [ "obj-49", 0 ]
				}

			}
, 			{
				"patchline" : 				{
					"destination" : [ "obj-52", 0 ],
					"source" : [ "obj-53", 0 ]
				}

			}
, 			{
				"patchline" : 				{
					"destination" : [ "obj-52", 3 ],
					"source" : [ "obj-54", 0 ]
				}

			}
, 			{
				"patchline" : 				{
					"destination" : [ "obj-62", 0 ],
					"source" : [ "obj-55", 0 ]
				}

			}
, 			{
				"patchline" : 				{
					"destination" : [ "obj-10", 1 ],
					"source" : [ "obj-58", 0 ]
				}

			}
, 			{
				"patchline" : 				{
					"destination" : [ "obj-1", 6 ],
					"source" : [ "obj-59", 0 ]
				}

			}
, 			{
				"patchline" : 				{
					"color" : [ 0.986047506332397, 0.008333429694176, 0.501923501491547, 1.0 ],
					"destination" : [ "obj-96", 0 ],
					"source" : [ "obj-59", 1 ]
				}

			}
, 			{
				"patchline" : 				{
					"destination" : [ "obj-63", 0 ],
					"source" : [ "obj-61", 0 ]
				}

			}
, 			{
				"patchline" : 				{
					"destination" : [ "obj-49", 0 ],
					"source" : [ "obj-62", 0 ]
				}

			}
, 			{
				"patchline" : 				{
					"destination" : [ "obj-64", 0 ],
					"source" : [ "obj-63", 0 ]
				}

			}
, 			{
				"patchline" : 				{
					"destination" : [ "obj-59", 0 ],
					"source" : [ "obj-64", 0 ]
				}

			}
, 			{
				"patchline" : 				{
					"destination" : [ "obj-52", 2 ],
					"order" : 1,
					"source" : [ "obj-67", 0 ]
				}

			}
, 			{
				"patchline" : 				{
					"destination" : [ "obj-54", 0 ],
					"order" : 0,
					"source" : [ "obj-67", 0 ]
				}

			}
, 			{
				"patchline" : 				{
					"destination" : [ "obj-69", 0 ],
					"source" : [ "obj-68", 0 ]
				}

			}
, 			{
				"patchline" : 				{
					"destination" : [ "obj-70", 0 ],
					"source" : [ "obj-69", 0 ]
				}

			}
, 			{
				"patchline" : 				{
					"destination" : [ "obj-23", 0 ],
					"midpoints" : [ 662.25, 248.0 ],
					"source" : [ "obj-7", 0 ]
				}

			}
, 			{
				"patchline" : 				{
					"destination" : [ "obj-1", 4 ],
					"source" : [ "obj-70", 0 ]
				}

			}
, 			{
				"patchline" : 				{
					"color" : [ 0.986047506332397, 0.008333429694176, 0.501923501491547, 1.0 ],
					"destination" : [ "obj-96", 0 ],
					"source" : [ "obj-70", 1 ]
				}

			}
, 			{
				"patchline" : 				{
					"destination" : [ "obj-37", 1 ],
					"source" : [ "obj-8", 0 ]
				}

			}
, 			{
				"patchline" : 				{
					"destination" : [ "obj-94", 0 ],
					"source" : [ "obj-87", 0 ]
				}

			}
, 			{
				"patchline" : 				{
					"destination" : [ "obj-33", 0 ],
					"source" : [ "obj-9", 0 ]
				}

			}
, 			{
				"patchline" : 				{
					"destination" : [ "obj-89", 0 ],
					"order" : 1,
					"source" : [ "obj-90", 0 ]
				}

			}
, 			{
				"patchline" : 				{
					"destination" : [ "obj-91", 0 ],
					"order" : 0,
					"source" : [ "obj-90", 0 ]
				}

			}
, 			{
				"patchline" : 				{
					"destination" : [ "obj-1", 0 ],
					"source" : [ "obj-91", 0 ]
				}

			}
, 			{
				"patchline" : 				{
					"destination" : [ "obj-24", 0 ],
					"source" : [ "obj-92", 0 ]
				}

			}
, 			{
				"patchline" : 				{
					"destination" : [ "obj-1", 3 ],
					"source" : [ "obj-95", 0 ]
				}

			}
, 			{
				"patchline" : 				{
					"color" : [ 0.986047506332397, 0.008333429694176, 0.501923501491547, 1.0 ],
					"destination" : [ "obj-96", 0 ],
					"source" : [ "obj-95", 1 ]
				}

			}
, 			{
				"patchline" : 				{
					"destination" : [ "obj-1", 0 ],
					"source" : [ "obj-96", 0 ]
				}

			}
, 			{
				"patchline" : 				{
					"destination" : [ "obj-1", 1 ],
					"source" : [ "obj-97", 0 ]
				}

			}
, 			{
				"patchline" : 				{
					"color" : [ 0.986047506332397, 0.008333429694176, 0.501923501491547, 1.0 ],
					"destination" : [ "obj-96", 0 ],
					"source" : [ "obj-97", 1 ]
				}

			}
 ]
	}

}
